<svg xmlns="http://www.w3.org/2000/svg" xmlns:xlink="http://www.w3.org/1999/xlink" width="520.597" height="403.624" viewBox="0 0 520.597 403.624">
  <defs>
    <linearGradient id="linear-gradient" x1="1.265" y1="0.5" x2="2.265" y2="0.5" gradientUnits="objectBoundingBox">
      <stop offset="0" stop-color="#dfefea"/>
      <stop offset="1" stop-color="#bfe3ee"/>
    </linearGradient>
    <linearGradient id="linear-gradient-2" x1="32.561" y1="0.5" x2="33.561" y2="0.5" xlink:href="#linear-gradient"/>
    <linearGradient id="linear-gradient-3" x1="127.335" y1="0.5" x2="128.335" y2="0.5" gradientUnits="objectBoundingBox">
      <stop offset="0" stop-color="#f1f8f7"/>
      <stop offset="1" stop-color="#bfe3ee"/>
    </linearGradient>
    <linearGradient id="linear-gradient-4" x1="106.13" y1="0.5" x2="107.13" y2="0.5" xlink:href="#linear-gradient-3"/>
    <linearGradient id="linear-gradient-5" x1="0.5" y1="-0.051" x2="0.5" y2="1.118" gradientUnits="objectBoundingBox">
      <stop offset="0" stop-color="#bfe3ee"/>
      <stop offset="0.116" stop-color="#c6e5ed"/>
      <stop offset="0.495" stop-color="#d8ecea"/>
      <stop offset="0.765" stop-color="#dfefea"/>
    </linearGradient>
    <linearGradient id="linear-gradient-6" x1="0" y1="0.5" x2="1" y2="0.5" xlink:href="#linear-gradient-5"/>
    <linearGradient id="linear-gradient-8" x1="158.249" y1="-46.795" x2="159.242" y2="-46.795" xlink:href="#linear-gradient"/>
    <linearGradient id="linear-gradient-9" x1="212.191" y1="-16.735" x2="213.267" y2="-16.735" xlink:href="#linear-gradient"/>
  </defs>
  <g id="img-01" transform="translate(-958.181 -914.853)">
    <path id="Tracé_323" data-name="Tracé 323" d="M1098,986.358h222.153s12.047-15.241,0-25.5c-6.648-5.66-14.5-5.074-20.2-3.411a6.65,6.65,0,0,1-8.237-5.207c-1.351-6.266-5.514-14.465-17.472-19.31-11.765-4.766-19.206,2.512-23.512,9.99a3.341,3.341,0,0,1-6.043-.616c-3.729-11.8-16.725-27.455-59.428-27.455-54.313,0-48.278,28.873-43.424,40.873a2.767,2.767,0,0,1-3.139,3.773c-8.378-1.791-23.928-4.112-30.9,1.363C1098,968.55,1098,986.358,1098,986.358Z" fill="url(#linear-gradient)"/>
    <g id="Groupe_270" data-name="Groupe 270">
      <g id="Groupe_266" data-name="Groupe 266">
        <path id="Tracé_324" data-name="Tracé 324" d="M1123.456,1046.955s30.764-72.427-9.971-113.222c-90.728,40.108-51.041,129.23-51.041,129.23Z" fill="#f18e33"/>
        <path id="Tracé_325" data-name="Tracé 325" d="M1113.484,933.733c-.315.14-.624.282-.936.423l-13.781,91.687-37.462-44.048q-.395.883-.763,1.768l37.885,44.545-3.977,26.458,1.818-.477,7.927-52.742h0l30.33-14.269c-.021-.623-.044-1.248-.076-1.873L1104.5,999.292l9.736-64.773c-.253-.262-.5-.527-.754-.786Z" fill="#fff"/>
      </g>
      <g id="Groupe_267" data-name="Groupe 267">
        <path id="Tracé_326" data-name="Tracé 326" d="M1104.631,1027.983s-21.186-75.556-75.044-87.729c-44.4,49.375,3.139,107.264,3.139,107.264l60.578,32.238Z" fill="#053c5e"/>
        <path id="Tracé_327" data-name="Tracé 327" d="M1079.148,976.236l-18.557,29.436-29.736-65.1c-.423-.1-.841-.216-1.268-.313-.175.195-.336.39-.508.585l15.927,34.869-30.945-9.351c-.1.292-.184.583-.276.874l-.234.776,32.411,9.794,26.541,58.11-54.834-14.679c.279.68.56,1.354.845,2.014l54.919,14.7,18.847,41.263,1.024.545.365-1.666-32.219-70.539,18.787-29.8Q1079.7,976.99,1079.148,976.236Z" fill="#00666b"/>
      </g>
      <g id="Groupe_269" data-name="Groupe 269">
        <path id="Tracé_328" data-name="Tracé 328" d="M1082.982,1058.66s-50.933-41.178-89.094-19.3c-3.063,89.772,110.912,100.006,110.912,100.006Z" fill="#01888b"/>
        <g id="Groupe_268" data-name="Groupe 268">
          <path id="Tracé_329" data-name="Tracé 329" d="M993.888,1039.362c-.012.346-.017.687-.025,1.031l73.066,50.294-46.214,13.983q.747.684,1.506,1.349l46.53-14.078,28.538,19.644-.7-2.579-55.562-38.246-6.853-36.064q-.914-.2-1.831-.38l6.66,35.051-44.267-30.47c-.283.155-.568.3-.85.463Z" fill="#00666b"/>
        </g>
      </g>
    </g>
    <g id="Groupe_272" data-name="Groupe 272">
      <g id="Groupe_271" data-name="Groupe 271">
        <path id="Tracé_330" data-name="Tracé 330" d="M1353.785,1318.477h-6.221a33.206,33.206,0,0,1-33.168-33.169v-72.177h3.064v72.177a30.139,30.139,0,0,0,30.1,30.1h6.221a30.139,30.139,0,0,0,30.1-30.1v-6.916h3.064v6.916A33.206,33.206,0,0,1,1353.785,1318.477Z" fill="#63c0c4"/>
      </g>
    </g>
    <g id="Groupe_273" data-name="Groupe 273">
      <path id="Tracé_331" data-name="Tracé 331" d="M1084.567,950.6h-6.22a33.206,33.206,0,0,0-33.168,33.169V1100.08h3.064V983.774a30.138,30.138,0,0,1,30.1-30.1h6.22a30.138,30.138,0,0,1,30.1,30.1v6.916h3.064v-6.916A33.206,33.206,0,0,0,1084.567,950.6Z" fill="#63c0c4"/>
    </g>
    <path id="Tracé_332" data-name="Tracé 332" d="M1192.4,1276.184h91.646c-8.953-10.679-21.766-33.37-13.434-70.228,7.939-35.119-12.1-44.731-32.389-34.333-20.292-10.4-40.328-.786-32.389,34.333C1214.163,1242.814,1201.35,1265.505,1192.4,1276.184Z" fill="#053c5e"/>
    <path id="Tracé_333" data-name="Tracé 333" d="M1289.887,1270.359H1183.609c-6.079,0-11.006,5.928-11.006,13.241h128.29C1300.893,1276.287,1295.966,1270.359,1289.887,1270.359Z" fill="#212b53"/>
    <path id="Tracé_334" data-name="Tracé 334" d="M1465.8,1021.352c5.393,23.437-49.876,26.45-72.65,26.705a89.426,89.426,0,0,1-18.785-1.784c-19.259-3.908-61.416-14.164-55.5-28.109,7.628-17.992,30.543-5.448,30.543-5.448s-2.876-13.583,36.116-22.555,38.836,20.924,38.836,20.924S1459.022,991.91,1465.8,1021.352Z" fill="url(#linear-gradient-2)"/>
    <g id="Groupe_277" data-name="Groupe 277">
      <g id="Groupe_274" data-name="Groupe 274">
        <path id="Tracé_335" data-name="Tracé 335" d="M1374.127,1137.4s19.072-71.487,69.7-83.607c42.451,46.02-1.678,101.165-1.678,101.165l-56.727,31.117Z" fill="#f18e33"/>
        <path id="Tracé_336" data-name="Tracé 336" d="M1397.534,1088.309l17.847,27.531,27.258-61.736c.4-.1.79-.214,1.191-.31.167.181.321.364.486.545l-14.6,33.065,29.063-9.185c.095.273.18.547.27.82l.23.729-30.439,9.621-24.329,55.1L1456.033,1130c-.254.645-.511,1.283-.772,1.909l-51.6,14.517-17.275,39.127-.959.526-.364-1.566,29.533-66.888-18.068-27.873Q1397.024,1089.027,1397.534,1088.309Z" fill="#fff"/>
      </g>
      <g id="Groupe_276" data-name="Groupe 276">
        <path id="Tracé_337" data-name="Tracé 337" d="M1394.905,1166.064s47.527-39.431,83.766-19.26c3.96,84.6-103.372,95.61-103.372,95.61Z" fill="#01888b"/>
        <g id="Groupe_275" data-name="Groupe 275">
          <path id="Tracé_338" data-name="Tracé 338" d="M1478.671,1146.805c.015.326.024.648.036.972l-68.285,48.289,43.737,12.631q-.7.654-1.4,1.291l-44.036-12.718-26.671,18.862.626-2.44,51.927-36.722,6.03-34.082q.858-.2,1.722-.381l-5.86,33.126,41.37-29.256c.269.143.539.278.807.427Z" fill="#00666b"/>
        </g>
      </g>
    </g>
    <g id="Groupe_280" data-name="Groupe 280">
      <g id="Groupe_278" data-name="Groupe 278">
        <path id="Tracé_339" data-name="Tracé 339" d="M1306.261,941.265l21.623-11.934,11.038-2.208,8.342,1.227Z" fill="url(#linear-gradient-3)"/>
        <path id="Tracé_340" data-name="Tracé 340" d="M1306.261,941.265l40.489-10.408.513-2.507" fill="#afd8c7"/>
        <path id="Tracé_341" data-name="Tracé 341" d="M1347.906,937.8l-.052.085-1.7,6.286-39.791-2.906Z" fill="#63c0c4"/>
        <path id="Tracé_342" data-name="Tracé 342" d="M1355.638,934.12l-5.777-4.689L1306.524,941.2l37.3-1.109Z" fill="url(#linear-gradient-4)"/>
      </g>
      <g id="Groupe_279" data-name="Groupe 279">
        <path id="Tracé_343" data-name="Tracé 343" d="M1446.713,1014.34a30.314,30.314,0,0,1-3.9-1.691.589.589,0,0,0-.542,1.045,31.647,31.647,0,0,0,4.047,1.756q.747.264,1.5.489a.588.588,0,1,0,.338-1.126C1447.677,1014.667,1447.193,1014.508,1446.713,1014.34Z" fill="#63c0c4"/>
        <path id="Tracé_344" data-name="Tracé 344" d="M1367.469,929.736c-1.836.236-3.747.537-5.842.925a.588.588,0,0,0,.213,1.157c2.074-.383,3.964-.682,5.778-.915a.588.588,0,0,0-.149-1.167Z" fill="#63c0c4"/>
        <path id="Tracé_345" data-name="Tracé 345" d="M1377.28,930.186a.588.588,0,0,0-.346-1.061c-1.887-.017-3.882.062-5.93.234a.588.588,0,0,0,.1,1.172c2.011-.168,3.97-.245,5.822-.229A.587.587,0,0,0,1377.28,930.186Z" fill="#63c0c4"/>
        <path id="Tracé_346" data-name="Tracé 346" d="M1435.362,1007.248a.58.58,0,0,0-.831.011.586.586,0,0,0,.011.831,32.773,32.773,0,0,0,4.642,3.771.587.587,0,0,0,.677-.016.549.549,0,0,0,.139-.145.588.588,0,0,0-.161-.816A31.674,31.674,0,0,1,1435.362,1007.248Z" fill="#63c0c4"/>
        <path id="Tracé_347" data-name="Tracé 347" d="M1432.937,1005.526a.588.588,0,0,0,.082-.828c-.332-.406-.656-.82-.968-1.241a30.53,30.53,0,0,1-2.26-3.535.588.588,0,0,0-.8-.235.594.594,0,0,0-.235.8,31.533,31.533,0,0,0,2.347,3.671q.484.656,1,1.287a.587.587,0,0,0,.8.1Z" fill="#63c0c4"/>
        <path id="Tracé_348" data-name="Tracé 348" d="M1427.986,997.561a.553.553,0,0,0,.126-.071.585.585,0,0,0,.193-.7,40.233,40.233,0,0,1-1.789-5.506.588.588,0,1,0-1.14.287,41.037,41.037,0,0,0,1.842,5.666A.587.587,0,0,0,1427.986,997.561Z" fill="#63c0c4"/>
        <path id="Tracé_349" data-name="Tracé 349" d="M1412.389,947.369q.735.9,1.424,1.828c.694.936,1.356,1.906,1.969,2.882a.589.589,0,0,0,.811.186l.038-.027a.588.588,0,0,0,.147-.784c-.628-1-1.307-2-2.019-2.957q-.707-.956-1.462-1.874a.559.559,0,0,0-.828-.081A.587.587,0,0,0,1412.389,947.369Z" fill="#63c0c4"/>
        <path id="Tracé_350" data-name="Tracé 350" d="M1417.515,955.1a42.97,42.97,0,0,1,2.332,5.308.588.588,0,0,0,.753.354.57.57,0,0,0,.15-.081.587.587,0,0,0,.2-.671,43.835,43.835,0,0,0-2.4-5.455.588.588,0,0,0-1.043.545Z" fill="#63c0c4"/>
        <path id="Tracé_351" data-name="Tracé 351" d="M1405.819,940.811a47.716,47.716,0,0,1,4.259,3.95.588.588,0,0,0,.775.067.673.673,0,0,0,.057-.048.588.588,0,0,0,.02-.831,49.352,49.352,0,0,0-4.363-4.048.589.589,0,0,0-.748.91Z" fill="#63c0c4"/>
        <path id="Tracé_352" data-name="Tracé 352" d="M1394.975,934.117a.586.586,0,0,0,.588-.066.578.578,0,0,0,.187-.234.587.587,0,0,0-.3-.776,46.553,46.553,0,0,0-5.588-2.057.588.588,0,1,0-.334,1.128A45.515,45.515,0,0,1,1394.975,934.117Z" fill="#63c0c4"/>
        <path id="Tracé_353" data-name="Tracé 353" d="M1423.958,979.245a.6.6,0,0,0,.284-.112.589.589,0,0,0,.234-.539l-.084-.741c-.194-1.705-.389-3.412-.614-5.112a.589.589,0,1,0-1.167.155c.225,1.693.418,3.392.612,5.09l.085.74A.588.588,0,0,0,1423.958,979.245Z" fill="#63c0c4"/>
        <path id="Tracé_354" data-name="Tracé 354" d="M1403.047,938.7a.588.588,0,0,0,.689-.008.594.594,0,0,0,.131-.134.587.587,0,0,0-.142-.819,48.915,48.915,0,0,0-5.064-3.127.588.588,0,1,0-.555,1.037A47.639,47.639,0,0,1,1403.047,938.7Z" fill="#63c0c4"/>
        <path id="Tracé_355" data-name="Tracé 355" d="M1424.234,981.582a.587.587,0,0,0-.509.658c.288,2.291.572,4.15.891,5.851a.588.588,0,0,0,.688.469.577.577,0,0,0,.241-.1.588.588,0,0,0,.228-.581c-.315-1.677-.6-3.514-.882-5.781A.589.589,0,0,0,1424.234,981.582Z" fill="#63c0c4"/>
        <path id="Tracé_356" data-name="Tracé 356" d="M1451.531,1015.641a.588.588,0,1,0-.226,1.154,47.338,47.338,0,0,0,5.9.763.588.588,0,0,0,.083-1.174A46.828,46.828,0,0,1,1451.531,1015.641Z" fill="#63c0c4"/>
        <path id="Tracé_357" data-name="Tracé 357" d="M1421.3,963.009a.588.588,0,0,0-.415.721c.463,1.73.86,3.593,1.213,5.694a.588.588,0,0,0,.676.484.6.6,0,0,0,.254-.108.586.586,0,0,0,.23-.57c-.358-2.14-.763-4.039-1.238-5.8A.587.587,0,0,0,1421.3,963.009Z" fill="#63c0c4"/>
        <path id="Tracé_358" data-name="Tracé 358" d="M1382.561,929.474q-1.031-.123-2.062-.2a.589.589,0,0,0-.089,1.174q1.008.075,2.012.194c1.244.148,2.5.355,3.732.616a.588.588,0,0,0,.471-.1.589.589,0,0,0-.228-1.048C1385.13,929.838,1383.839,929.626,1382.561,929.474Z" fill="#63c0c4"/>
      </g>
    </g>
    <rect id="Rectangle_97" data-name="Rectangle 97" width="326.493" height="235.773" rx="5.307" transform="translate(1073.086 977.358)" fill="#63c0c4"/>
    <path id="Rectangle_98" data-name="Rectangle 98" d="M5.069,0H306.726a5.068,5.068,0,0,1,5.068,5.068V220.089a5.069,5.069,0,0,1-5.069,5.069H5.069A5.069,5.069,0,0,1,0,220.089V5.069A5.069,5.069,0,0,1,5.069,0Z" transform="translate(1080.436 982.665)" fill="#053c5e"/>
    <path id="Tracé_359" data-name="Tracé 359" d="M1232.4,980.046a1.964,1.964,0,1,0,1.964-1.964A1.964,1.964,0,0,0,1232.4,980.046Z" fill="#fff"/>
    <rect id="Rectangle_99" data-name="Rectangle 99" width="285.561" height="203.039" transform="translate(1093.942 994.028)" fill="url(#linear-gradient-5)"/>
    <rect id="Rectangle_100" data-name="Rectangle 100" width="285.561" height="24.669" transform="translate(1093.942 994.028)" fill="#01888b"/>
    <path id="Tracé_360" data-name="Tracé 360" d="M1276.136,1173.448H1116.427a2.729,2.729,0,0,1-2.721-2.721h0a2.729,2.729,0,0,1,2.721-2.72h159.709a2.728,2.728,0,0,1,2.72,2.72h0A2.728,2.728,0,0,1,1276.136,1173.448Z" fill="#63c0c4"/>
    <path id="Tracé_361" data-name="Tracé 361" d="M1355.505,1006.533a7.162,7.162,0,1,0,7.162-7.162A7.162,7.162,0,0,0,1355.505,1006.533Z" fill="#212b53"/>
    <path id="Tracé_362" data-name="Tracé 362" d="M1333.035,1006.533a7.162,7.162,0,1,0,7.162-7.162A7.162,7.162,0,0,0,1333.035,1006.533Z" fill="#fff"/>
    <rect id="Rectangle_101" data-name="Rectangle 101" width="91.119" height="14.325" transform="translate(1100.84 999.371)" fill="#fff"/>
    <g id="Groupe_281" data-name="Groupe 281">
      <rect id="Rectangle_102" data-name="Rectangle 102" width="147.774" height="206.977" transform="translate(1009.815 1090.802)" fill="#01888b"/>
      <path id="Tracé_363" data-name="Tracé 363" d="M1153.913,1088.98h-138.6c-4.288,0-7.8,2.8-7.8,6.229v199.027c0,3.426,3.508,6.229,7.8,6.229h138.6c4.288,0,7.8-2.8,7.8-6.229V1095.209C1161.708,1091.783,1158.2,1088.98,1153.913,1088.98Zm3.676,191.839H1012.278V1103.4h145.311Z" fill="#053c5e"/>
      <circle id="Ellipse_8" data-name="Ellipse 8" cx="6.413" cy="6.413" r="6.413" transform="translate(1077.727 1283.969)" fill="url(#linear-gradient-6)"/>
      <circle id="Ellipse_9" data-name="Ellipse 9" cx="5.153" cy="5.153" r="5.153" transform="translate(1078.987 1285.229)" fill="#00666b"/>
      <path id="Tracé_364" data-name="Tracé 364" d="M1090.94,1097.884h-13.366a1.9,1.9,0,0,1-1.889-1.89h0a1.9,1.9,0,0,1,1.889-1.89h13.366a1.9,1.9,0,0,1,1.89,1.89h0A1.9,1.9,0,0,1,1090.94,1097.884Z" fill="#fff"/>
    </g>
    <rect id="Rectangle_103" data-name="Rectangle 103" width="128.698" height="165.441" transform="translate(1019.745 1108.712)" fill="url(#linear-gradient-6)"/>
    <rect id="Rectangle_104" data-name="Rectangle 104" width="128.698" height="15.806" transform="translate(1019.745 1108.712)" fill="#f18e33"/>
    <path id="Tracé_365" data-name="Tracé 365" d="M1134.82,1116.615a3.667,3.667,0,1,0,3.667-3.667A3.667,3.667,0,0,0,1134.82,1116.615Z" fill="#f6a505"/>
    <path id="Tracé_366" data-name="Tracé 366" d="M1123.317,1116.615a3.667,3.667,0,1,0,3.667-3.667A3.667,3.667,0,0,0,1123.317,1116.615Z" fill="#fff"/>
    <rect id="Rectangle_105" data-name="Rectangle 105" width="45.56" height="7.163" transform="translate(1025.773 1112.713)" fill="#fff"/>
    <path id="Tracé_367" data-name="Tracé 367" d="M1276.136,1041.572H1116.427a2.729,2.729,0,0,1-2.721-2.72h0a2.729,2.729,0,0,1,2.721-2.721h159.709a2.728,2.728,0,0,1,2.72,2.721h0A2.728,2.728,0,0,1,1276.136,1041.572Z" fill="#63c0c4"/>
    <path id="Tracé_368" data-name="Tracé 368" d="M1291.607,1076.537H1131.9a2.728,2.728,0,0,1-2.72-2.72h0a2.728,2.728,0,0,1,2.72-2.721h159.709a2.728,2.728,0,0,1,2.721,2.721h0A2.728,2.728,0,0,1,1291.607,1076.537Z" fill="#63c0c4"/>
    <path id="Tracé_369" data-name="Tracé 369" d="M1326.485,1041.572H1290.05a2.728,2.728,0,0,1-2.719-2.72h0a2.728,2.728,0,0,1,2.719-2.719h36.435a2.728,2.728,0,0,1,2.72,2.719h0A2.728,2.728,0,0,1,1326.485,1041.572Z" fill="#63c0c4"/>
    <path id="Tracé_370" data-name="Tracé 370" d="M1116.426,1056.672h36.435a2.728,2.728,0,0,0,2.72-2.72h0a2.727,2.727,0,0,0-2.72-2.719h-36.435a2.727,2.727,0,0,0-2.72,2.719h0A2.728,2.728,0,0,0,1116.426,1056.672Z" fill="#63c0c4"/>
    <path id="Tracé_371" data-name="Tracé 371" d="M1036.262,1147.331H1072.7a2.727,2.727,0,0,0,2.719-2.72h0a2.726,2.726,0,0,0-2.719-2.719h-36.435a2.727,2.727,0,0,0-2.72,2.719h0A2.728,2.728,0,0,0,1036.262,1147.331Z" fill="#63c0c4"/>
    <path id="Tracé_372" data-name="Tracé 372" d="M1097.587,1147.331h36.435a2.728,2.728,0,0,0,2.719-2.72h0a2.727,2.727,0,0,0-2.719-2.719h-36.435a2.727,2.727,0,0,0-2.72,2.719h0A2.728,2.728,0,0,0,1097.587,1147.331Z" fill="#63c0c4"/>
    <path id="Tracé_373" data-name="Tracé 373" d="M1036.262,1160.95h76.573a2.728,2.728,0,0,0,2.72-2.72h0a2.728,2.728,0,0,0-2.72-2.72h-76.573a2.728,2.728,0,0,0-2.72,2.72h0A2.728,2.728,0,0,0,1036.262,1160.95Z" fill="#63c0c4"/>
    <path id="Tracé_374" data-name="Tracé 374" d="M1036.262,1174.584h76.573a2.728,2.728,0,0,0,2.72-2.719h0a2.728,2.728,0,0,0-2.72-2.72h-76.573a2.728,2.728,0,0,0-2.72,2.72h0A2.728,2.728,0,0,0,1036.262,1174.584Z" fill="#63c0c4"/>
    <path id="Tracé_375" data-name="Tracé 375" d="M1165.384,1056.672h100.909a2.662,2.662,0,0,0,2.654-2.655h0a2.662,2.662,0,0,0-2.654-2.654H1165.384a2.662,2.662,0,0,0-2.654,2.654h0A2.662,2.662,0,0,0,1165.384,1056.672Z" fill="#63c0c4"/>
    <path id="Tracé_376" data-name="Tracé 376" d="M1285.484,1054.132a3.314,3.314,0,1,1-3.314-3.314A3.313,3.313,0,0,1,1285.484,1054.132Z" fill="#63c0c4"/>
    <circle id="Ellipse_10" data-name="Ellipse 10" cx="3.314" cy="3.314" r="3.314" transform="translate(1290.226 1167.495)" fill="#63c0c4"/>
    <g id="Groupe_282" data-name="Groupe 282">
      <path id="Tracé_377" data-name="Tracé 377" d="M1351.073,1104.956h-36.435a2.728,2.728,0,0,1-2.72-2.72h0a2.728,2.728,0,0,1,2.72-2.719h36.435a2.727,2.727,0,0,1,2.719,2.719h0A2.727,2.727,0,0,1,1351.073,1104.956Z" fill="#63c0c4"/>
      <path id="Tracé_378" data-name="Tracé 378" d="M1305.089,1101.882a6.3,6.3,0,1,1-6.3-6.3A6.3,6.3,0,0,1,1305.089,1101.882Z" fill="#63c0c4"/>
    </g>
    <g id="Groupe_283" data-name="Groupe 283">
      <path id="Tracé_379" data-name="Tracé 379" d="M1351.073,1124.884h-36.435a2.728,2.728,0,0,1-2.72-2.72h0a2.728,2.728,0,0,1,2.72-2.72h36.435a2.727,2.727,0,0,1,2.719,2.72h0A2.727,2.727,0,0,1,1351.073,1124.884Z" fill="#63c0c4"/>
      <path id="Tracé_380" data-name="Tracé 380" d="M1305.089,1121.809a6.3,6.3,0,1,1-6.3-6.3A6.3,6.3,0,0,1,1305.089,1121.809Z" fill="#63c0c4"/>
    </g>
    <g id="Groupe_284" data-name="Groupe 284">
      <path id="Tracé_381" data-name="Tracé 381" d="M1351.073,1144.811h-36.435a2.728,2.728,0,0,1-2.72-2.72h0a2.728,2.728,0,0,1,2.72-2.719h36.435a2.727,2.727,0,0,1,2.719,2.719h0A2.727,2.727,0,0,1,1351.073,1144.811Z" fill="#63c0c4"/>
      <path id="Tracé_382" data-name="Tracé 382" d="M1305.089,1141.737a6.3,6.3,0,1,1-6.3-6.3A6.3,6.3,0,0,1,1305.089,1141.737Z" fill="#63c0c4"/>
    </g>
    <path id="Tracé_383" data-name="Tracé 383" d="M1090.023,1143.562a3.314,3.314,0,1,1-3.314-3.313A3.314,3.314,0,0,1,1090.023,1143.562Z" fill="#63c0c4"/>
    <path id="Tracé_384" data-name="Tracé 384" d="M1129.769,1171.857a3.314,3.314,0,1,1-3.314-3.313A3.314,3.314,0,0,1,1129.769,1171.857Z" fill="#63c0c4"/>
    <path id="Tracé_385" data-name="Tracé 385" d="M1120.084,1074.088a3.313,3.313,0,1,1-3.313-3.313A3.314,3.314,0,0,1,1120.084,1074.088Z" fill="#63c0c4"/>
    <rect id="Rectangle_106" data-name="Rectangle 106" width="85.791" height="62.266" transform="translate(1184.315 1093.769)" fill="#00666b"/>
    <rect id="Rectangle_107" data-name="Rectangle 107" width="48.288" height="62.266" transform="translate(1079.219 1192.934)" fill="#f18e33"/>
    <rect id="Rectangle_108" data-name="Rectangle 108" width="25.967" height="26.126" transform="translate(1041.716 1229.074)" fill="#63c0c4"/>
    <rect id="Rectangle_109" data-name="Rectangle 109" width="25.967" height="26.126" transform="translate(1041.716 1195.512)" fill="#01888b"/>
    <g id="Groupe_291" data-name="Groupe 291">
      <g id="Groupe_285" data-name="Groupe 285">
        <path id="Tracé_386" data-name="Tracé 386" d="M961.713,1103.608l-2.389,7.858,7.387-3.119,24.864-12.96Z" fill="#afd8c7"/>
        <path id="Tracé_387" data-name="Tracé 387" d="M959.324,1111.466l12.933-3.128-3.493-1.062Z" fill="#63c0c4"/>
        <path id="Tracé_388" data-name="Tracé 388" d="M961.713,1103.608l-3.532-6.618,33.394-1.6Z" fill="url(#linear-gradient-8)"/>
        <path id="Tracé_389" data-name="Tracé 389" d="M991.575,1095.387l-24.864,12.96,5.717,9.429Z" fill="url(#linear-gradient-9)"/>
      </g>
      <g id="Groupe_290" data-name="Groupe 290">
        <g id="Groupe_286" data-name="Groupe 286">
          <path id="Tracé_390" data-name="Tracé 390" d="M963.495,1118.209a.6.6,0,0,1-.211-.112.624.624,0,0,1-.093-.878,17.54,17.54,0,0,1,2.258-2.323.624.624,0,1,1,.81.95,16.288,16.288,0,0,0-2.1,2.158A.623.623,0,0,1,963.495,1118.209Z" fill="#63c0c4"/>
        </g>
        <g id="Groupe_288" data-name="Groupe 288">
          <g id="Groupe_287" data-name="Groupe 287">
            <path id="Tracé_391" data-name="Tracé 391" d="M984.2,1184.12l-.038-.013a18.8,18.8,0,0,1-5.576-3.33.625.625,0,0,1,.81-.952,17.565,17.565,0,0,0,5.2,3.112.625.625,0,0,1-.4,1.183Zm-8.046-5.918a.619.619,0,0,1-.3-.2,23.565,23.565,0,0,1-3.4-5.494A.625.625,0,1,1,973.6,1172a22.392,22.392,0,0,0,3.222,5.205.625.625,0,0,1-.663,1Zm-4.541-8.925a.624.624,0,0,1-.425-.445l-.071-.3a30.069,30.069,0,0,1-.753-6.088.624.624,0,1,1,1.248-.031,28.833,28.833,0,0,0,.722,5.835l.066.274a.625.625,0,0,1-.787.75Zm-.688-10.027a.622.622,0,0,1-.44-.65,46.636,46.636,0,0,1,1-6.315.625.625,0,0,1,1.219.275,45.4,45.4,0,0,0-.972,6.146.624.624,0,0,1-.674.57A.684.684,0,0,1,970.926,1159.25Zm1.932-9.9a.624.624,0,0,1-.418-.771c.043-.147.085-.294.129-.44a20.351,20.351,0,0,1-2.951-1.027.625.625,0,1,1,.5-1.144,19.013,19.013,0,0,0,2.815.976c.435-1.386.929-2.831,1.5-4.4a.625.625,0,0,1,1.173.429c-.553,1.509-1.032,2.9-1.454,4.242q.92.179,1.857.268a.625.625,0,0,1-.119,1.244,20.968,20.968,0,0,1-2.106-.311c-.051.168-.1.337-.149.505a.625.625,0,0,1-.774.427Zm-6.456-4.08a.64.64,0,0,1-.183-.091,16.936,16.936,0,0,1-4.468-4.733.624.624,0,1,1,1.055-.668,15.677,15.677,0,0,0,4.142,4.387.625.625,0,0,1-.546,1.1Zm13.152,3.45a.625.625,0,0,1,.126-1.22,18.251,18.251,0,0,0,5.881-1.52.625.625,0,0,1,.513,1.14,19.517,19.517,0,0,1-6.282,1.625A.63.63,0,0,1,979.554,1148.725Zm-19.118-11.4a.621.621,0,0,1-.4-.384,20.2,20.2,0,0,1-1.191-6.374.624.624,0,1,1,1.248-.034,18.954,18.954,0,0,0,1.117,5.981.625.625,0,0,1-.769.811Zm28.45,7.907a.624.624,0,0,1-.2-1.095,15.392,15.392,0,0,0,1.2-1.009,12.112,12.112,0,0,0,2.616-3.566.624.624,0,1,1,1.125.541,13.341,13.341,0,0,1-2.888,3.938,16.517,16.517,0,0,1-1.3,1.091A.623.623,0,0,1,988.886,1145.228Zm-12.676-5.393a.586.586,0,0,1-.06-.021.625.625,0,0,1-.335-.818,24.347,24.347,0,0,1,3.137-5.645.624.624,0,1,1,.985.767,23.205,23.205,0,0,0-2.97,5.361A.624.624,0,0,1,976.21,1139.835Zm-16.686-12.465a.626.626,0,0,1-.435-.694,21.367,21.367,0,0,1,.661-2.886,20.308,20.308,0,0,1,1.319-3.284.625.625,0,0,1,1.114.565,19.14,19.14,0,0,0-1.238,3.083,20.049,20.049,0,0,0-.621,2.715.626.626,0,0,1-.714.521A.6.6,0,0,1,959.524,1127.37Zm34.373,9.43a.624.624,0,0,1-.441-.641,5.638,5.638,0,0,0-1.114-3.964,5.083,5.083,0,0,0-1.049-1.011.625.625,0,0,1,.731-1.014,6.34,6.34,0,0,1,1.306,1.26,6.943,6.943,0,0,1,1.372,4.816.626.626,0,0,1-.667.58A.694.694,0,0,1,993.9,1136.8Zm-11.927-5.1a.614.614,0,0,1-.33-.24.626.626,0,0,1,.155-.87,10.088,10.088,0,0,1,6.374-1.757.625.625,0,1,1-.09,1.246,8.942,8.942,0,0,0-5.57,1.536A.622.622,0,0,1,981.97,1131.7Z" fill="#63c0c4"/>
          </g>
        </g>
        <g id="Groupe_289" data-name="Groupe 289">
          <path id="Tracé_392" data-name="Tracé 392" d="M987.937,1185.009a.625.625,0,0,1,.246-1.22,13.353,13.353,0,0,0,2.978-.024.624.624,0,1,1,.15,1.239,14.583,14.583,0,0,1-3.256.029A.773.773,0,0,1,987.937,1185.009Z" fill="#63c0c4"/>
        </g>
      </g>
    </g>
    <path id="Tracé_393" data-name="Tracé 393" d="M1036.262,1147.331H1072.7a2.727,2.727,0,0,0,2.719-2.72h0a2.726,2.726,0,0,0-2.719-2.719h-36.435a2.727,2.727,0,0,0-2.72,2.719h0A2.728,2.728,0,0,0,1036.262,1147.331Z" fill="#63c0c4"/>
    <g id="Groupe_294" data-name="Groupe 294">
      <g id="Groupe_293" data-name="Groupe 293">
        <g id="Groupe_292" data-name="Groupe 292">
          <path id="Tracé_394" data-name="Tracé 394" d="M1412.882,1112.55c8.838,0,16,6.836,16,15.266v142.478c0,8.43-7.165,15.265-16,15.265h-56.421c-8.838,0-16-6.835-16-15.265V1127.816c0-8.43,7.164-15.266,16-15.266Z" fill="#01888b"/>
          <path id="Tracé_395" data-name="Tracé 395" d="M1414.7,1115.273c8.352,0,11.753,6.459,11.753,14.427v138.711c0,7.967-3.4,14.426-11.753,14.426h-58.934c-8.352,0-12.876-5.441-12.876-13.408V1128.682c0-7.968,4.524-13.409,12.876-13.409Z" fill="#fff"/>
          <rect id="Rectangle_110" data-name="Rectangle 110" width="80.589" height="125.177" transform="translate(1344.377 1136.467)" fill="#63c0c4"/>
          <path id="Tracé_396" data-name="Tracé 396" d="M1385.421,1278.392a5.477,5.477,0,1,0-5.478-5.477A5.476,5.476,0,0,0,1385.421,1278.392Z" fill="#01888b"/>
          <path id="Tracé_397" data-name="Tracé 397" d="M1399.879,1126.806c.18,0,.325-.256.325-.573h0c0-.315-.145-.572-.325-.572h-29.991c-.18,0-.324.257-.324.572h0c0,.317.144.573.324.573Z" fill="#01888b"/>
        </g>
      </g>
      <rect id="Rectangle_111" data-name="Rectangle 111" width="69.679" height="111.084" transform="translate(1349.402 1143.642)" fill="#053c5e"/>
      <rect id="Rectangle_112" data-name="Rectangle 112" width="69.679" height="12.481" transform="translate(1349.402 1143.642)" fill="#00666b"/>
      <path id="Tracé_398" data-name="Tracé 398" d="M1407.956,1149.882a2.67,2.67,0,1,0,2.67-2.67A2.669,2.669,0,0,0,1407.956,1149.882Z" fill="#f6a505"/>
      <path id="Tracé_399" data-name="Tracé 399" d="M1399.579,1149.882a2.67,2.67,0,1,0,2.67-2.67A2.67,2.67,0,0,0,1399.579,1149.882Z" fill="#ffd147"/>
      <rect id="Rectangle_113" data-name="Rectangle 113" width="26.642" height="4.188" transform="translate(1353.444 1147.788)" fill="#fff"/>
    </g>
    <g id="Groupe_295" data-name="Groupe 295">
      <path id="Tracé_400" data-name="Tracé 400" d="M1363.146,1183.911a3.313,3.313,0,1,1-3.313-3.314A3.313,3.313,0,0,1,1363.146,1183.911Z" fill="#63c0c4"/>
      <path id="Tracé_401" data-name="Tracé 401" d="M1396.592,1195.525a3.314,3.314,0,1,1-3.313-3.313A3.313,3.313,0,0,1,1396.592,1195.525Z" fill="#63c0c4"/>
      <path id="Tracé_402" data-name="Tracé 402" d="M1366.977,1175.626h36.435a2.727,2.727,0,0,0,2.719-2.72h0a2.726,2.726,0,0,0-2.719-2.719h-36.435a2.727,2.727,0,0,0-2.72,2.719h0A2.728,2.728,0,0,0,1366.977,1175.626Z" fill="#63c0c4"/>
      <path id="Tracé_403" data-name="Tracé 403" d="M1371.172,1187.163h36.435a2.728,2.728,0,0,0,2.72-2.72h0a2.727,2.727,0,0,0-2.72-2.719h-36.435a2.726,2.726,0,0,0-2.719,2.719h0A2.727,2.727,0,0,0,1371.172,1187.163Z" fill="#63c0c4"/>
    </g>
    <g id="man-03">
      <path id="Tracé_227" data-name="Tracé 227" d="M1156.525,1226.95l.02.036,0-.006c-.01-.016-.024-.032-.034-.049Z" fill="#162850"/>
      <path id="Tracé_228" data-name="Tracé 228" d="M1169.647,1172.324" fill="#b61e46"/>
      <path id="Tracé_229" data-name="Tracé 229" d="M1175.459,1237.4" fill="#08192f"/>
      <path id="Tracé_230" data-name="Tracé 230" d="M1168.2,1298.471c-.336-5.313-2.495-39.572-2.495-40.325,0-.816-1.36-18.767-1.36-20.751a3.614,3.614,0,0,0-1.082-2.831l4.252,63.907Z"/>
      <path id="Tracé_231" data-name="Tracé 231" d="M1170.735,1223.846c.051,3.127.129,6.02.215,9.318-4.274-.125-5.658-3.281-5.972-8.366Z" fill="#0f131a"/>
      <path id="Tracé_232" data-name="Tracé 232" d="M1162.033,1183.94" fill="#b0b0ab"/>
      <path id="Tracé_233" data-name="Tracé 233" d="M1150.531,1222.993c-.062,3.128-.154,6.021-.258,9.319,5.1-.126,6.753-3.281,7.126-8.367Z" fill="#0f131a"/>
      <path id="Tracé_234" data-name="Tracé 234" d="M1164.7,1178.405a3.894,3.894,0,0,0-2.776,2.1,8.078,8.078,0,0,1-1.745,1.988,6.977,6.977,0,0,0-1.055,1.015c-.381.423-.571.638-.527.77.146.439,2.067.576,3.562-.242a4.9,4.9,0,0,0,2.619-2.909A4.574,4.574,0,0,0,1164.7,1178.405Z" fill="#ed9b84" opacity="0.7"/>
      <path id="Tracé_235" data-name="Tracé 235" d="M1158.791,1184" fill="#3a3f1c"/>
      <path id="Tracé_236" data-name="Tracé 236" d="M1144.921,1295.562c-.3-.062-1.059,9.5-1.059,9.5l4.612.617,1.144-10.269Z" fill="#f8b297"/>
      <path id="Tracé_237" data-name="Tracé 237" d="M1168.6,1295.746l.622,10.23h5.184l-.864-10.23Z" fill="#f8b297"/>
      <path id="Tracé_238" data-name="Tracé 238" d="M1168.89,1302.722a5.613,5.613,0,0,0,1.732.76,4.785,4.785,0,0,0,2.068.1,4.157,4.157,0,0,0,1.717-1.3v1.455l-1.508,2.1h-2.309l-1.476-1.232Z" fill="#e2dbd9"/>
      <g id="Groupe_79" data-name="Groupe 79">
        <path id="Tracé_239" data-name="Tracé 239" d="M1168.9,1303.352s-1.891,1.989-1.561,6.727h17.715a2.885,2.885,0,0,0-1.648-2.938,6.524,6.524,0,0,0-3.461-.426l-5.356-4.027s-.165,1.042-1.978,1.9S1168.9,1303.352,1168.9,1303.352Z" fill="#b9babf"/>
        <path id="Tracé_240" data-name="Tracé 240" d="M1167.341,1310.079s-.242,1.318-.039,1.318h18.166l-.412-1.318Z" fill="#cccfd6"/>
        <path id="Tracé_241" data-name="Tracé 241" d="M1183.408,1307.142a7.163,7.163,0,0,0-3.56-.439,20,20,0,0,0-.313,2.445v.93h5.521A2.875,2.875,0,0,0,1183.408,1307.142Z" fill="#929398"/>
        <path id="Tracé_242" data-name="Tracé 242" d="M1175.9,1303.967a2.291,2.291,0,0,0-.751,1.223" fill="none" stroke="#e4e5ed" stroke-miterlimit="10" stroke-width="2.845"/>
        <path id="Tracé_243" data-name="Tracé 243" d="M1177.049,1304.552a1.371,1.371,0,0,0-.779,1.132" fill="none" stroke="#e4e5ed" stroke-miterlimit="10" stroke-width="2.845"/>
        <path id="Tracé_244" data-name="Tracé 244" d="M1178.086,1305.2a1.539,1.539,0,0,0-.784,1.194" fill="none" stroke="#e4e5ed" stroke-miterlimit="10" stroke-width="2.845"/>
        <path id="Tracé_245" data-name="Tracé 245" d="M1179.092,1305.9c-.072-.1-.236-.032-.328.055a2.087,2.087,0,0,0-.6,1.044" fill="none" stroke="#e4e5ed" stroke-miterlimit="10" stroke-width="2.845"/>
      </g>
      <path id="Tracé_246" data-name="Tracé 246" d="M1143.712,1301.2a3.113,3.113,0,0,0,2.13.88,16.082,16.082,0,0,0,3.289-.527,11.209,11.209,0,0,1-.257,2.4l-3.238,1.67a15.133,15.133,0,0,1-1.966-2.083A12.869,12.869,0,0,1,1143.712,1301.2Z" fill="#e2dbd9"/>
      <g id="Groupe_80" data-name="Groupe 80">
        <path id="Tracé_247" data-name="Tracé 247" d="M1142.832,1301.948s-.1-.514,1.336,0,2.056,1.748,2.981,1.748,1.954-1.748,1.954-1.748a21.385,21.385,0,0,1,1.028,7.4l-13.879.617s-.411-2.57,1.336-3.187,1.131-.1,1.131-.1Z" fill="#b9babf"/>
        <path id="Tracé_248" data-name="Tracé 248" d="M1136.21,1309.219l13.921-.074v1.645H1136.21Z" fill="#cccfd6"/>
        <path id="Tracé_249" data-name="Tracé 249" d="M1142.344,1307.028a3.459,3.459,0,0,0-2.68-1.171c-3.844-.211-4.229,3.788-3.126,3.418h6.439a3.3,3.3,0,0,0-.633-2.247" fill="#929398"/>
        <path id="Tracé_250" data-name="Tracé 250" d="M1141.521,1302.891a1.664,1.664,0,0,1,1.921.3" fill="none" stroke="#e4e5ed" stroke-miterlimit="10" stroke-width="3.55"/>
        <path id="Tracé_251" data-name="Tracé 251" d="M1140.643,1304.081a1.411,1.411,0,0,1,1.707.4" fill="none" stroke="#e4e5ed" stroke-miterlimit="10" stroke-width="3.55"/>
        <path id="Tracé_252" data-name="Tracé 252" d="M1139.889,1305.191a2.59,2.59,0,0,1,2.112.469" fill="none" stroke="#e4e5ed" stroke-miterlimit="10" stroke-width="3.55"/>
      </g>
      <path id="Tracé_253" data-name="Tracé 253" d="M1175.238,1300.692h-7.512l-4.818-63.727c-.352-.006-1.707.2-2.049.153l-10.3,64.029-7.113-.355c1.079-12.829,1.717-23.551,2.849-35.31,1.107-11.5,1.665-23.05,2.393-34.574l0-.06q.268-4.262.559-8.52c.016-.226.248-4.194.283-4.194l7.653.071,11.8.078,3.962-.546c.194.974.191,4.481.354,5.88.119,1.01,1.024,10.319,1.228,15.86C1175.368,1262.36,1175.286,1295.535,1175.238,1300.692Z" fill="#f18e33"/>
      <path id="Tracé_254" data-name="Tracé 254" d="M1149.766,1177.311" fill="#121728"/>
      <path id="Tracé_289" data-name="Tracé 289" d="M1162.908,1236.965l1.19-.507,4.795,64.087-1.167.148-4.818-63.3" fill="#623b15"/>
      <g id="Groupe_101" data-name="Groupe 101">
        <path id="Tracé_255" data-name="Tracé 255" d="M1170.713,1177.525c-.118-.9-.191-1.428-.23-1.706-.152-1.07-1.72-2.417-8.228-3.5l-1.948-.052c-8.09,1.076-10.144,2.423-10.286,3.548-.029.233-.112.8-.23,1.706-.241,1.851-1.576,3.008,0,2.753s8.611.747,11.075,3.985c2.464-3.239,8.27-4.24,9.847-3.985S1170.954,1179.376,1170.713,1177.525Z" fill="#121728"/>
        <path id="Tracé_256" data-name="Tracé 256" d="M1155.887,1171.17l.346,6.722a3.936,3.936,0,0,0-.5,4.2,3.48,3.48,0,0,0,1.582,1.441,4.033,4.033,0,0,1,.772.3c.336.176.33.235.614.354.423.177.493.1.745.276.274.187.328.384.488.371s.24-.2.315-.317c.244-.388.61-.473,1.256-.754,1.011-.439.873-.562,1.694-.9a7.524,7.524,0,0,1,2.022-.519q-.458-5.794-.916-11.588Z" fill="#f8b297"/>
        <path id="Tracé_257" data-name="Tracé 257" d="M1164.38,1173.269a4.124,4.124,0,0,1-3.573,1.547,9.686,9.686,0,0,1-3.475-1.047,11.47,11.47,0,0,0-1.4-.639l.022.431c.126.114.228.208.254.229.43.343.863.684,1.308,1.007.166.121.333.239.5.355.376.256.761.5,1.159.723a8.466,8.466,0,0,0,3.639,1.31,6.565,6.565,0,0,0,1.755-.186Q1164.476,1175.133,1164.38,1173.269Z" fill="#ed9b84" opacity="0.7"/>
        <path id="Tracé_258" data-name="Tracé 258" d="M1155.549,1180.243c.357-.245.856.466,2.705.92a10.061,10.061,0,0,0,2.868.271c2.5-.11,3.47-1.135,3.9-.7.585.592-.587,3.193-2.6,4.761-.756.589-2.112,1.647-3.625,1.353C1155.789,1186.261,1154.683,1180.837,1155.549,1180.243Z" fill="#138c9e"/>
        <g id="Groupe_81" data-name="Groupe 81">
          <path id="Tracé_259" data-name="Tracé 259" d="M1176.781,1197.284c.331-4.885-1.178-4.757-1.506-10.94a7.8,7.8,0,0,0-1.606-4.822,4.726,4.726,0,0,0-1.084-.936,8.971,8.971,0,0,0-3.613-.819,10.236,10.236,0,0,1-4.064-1.4c-.552.933-.964,1.713-1.238,2.252-.783,1.538-.944,2.111-1.664,2.733-.291.251-1.169,1.01-1.977.768-.283-.085-.446-.258-.985-.931-.824-1.026-1.234-1.54-1.419-1.838a11.294,11.294,0,0,1-1.392-3.462,33.619,33.619,0,0,1-6.143,1.929c-2.928.615-4.522.524-6.06,1.9a6.951,6.951,0,0,0-1.975,3.354c-.484,1.7-.233,3.084.216,5.411.608,3.146,1.113,2.768,1.272,4.869a44.645,44.645,0,0,0,.3,5.041,12.394,12.394,0,0,0,.341,1.535c.448,1.578.8,1.973,1.332,3.812a31.846,31.846,0,0,1,.974,5.952c.637,4.976.956,7.464,2.6,9.089,1.575,1.558,4.31,1.722,9.782,2.05a38.385,38.385,0,0,0,7.606-.282,18.5,18.5,0,0,0,4.417-.9c5.385-2.389,4.428-15.645,4.3-17.2A24.775,24.775,0,0,0,1176.781,1197.284Z" fill="#151a2f"/>
        </g>
        <g id="Groupe_97" data-name="Groupe 97">
          <g id="Groupe_96" data-name="Groupe 96">
            <g id="Groupe_94" data-name="Groupe 94">
              <g id="Groupe_92" data-name="Groupe 92">
                <g id="Groupe_84" data-name="Groupe 84">
                  <g id="Groupe_82" data-name="Groupe 82">
                    <path id="Tracé_260" data-name="Tracé 260" d="M1176.1,1196.578a3.5,3.5,0,0,0-1.477-.4,3.879,3.879,0,0,0-1.977.534c-2.064,1.021-4.942-.032-9.314-1.227-2.278-.622-3.162-1.085-4.178-.716-1.129.409-1.129,1.945-.791,3.173.434,1.573,2.62,2.393,6.888,3.993h0a26.768,26.768,0,0,0,6.863,1.776c1.821.216,2.732.324,3.571-.162a4.752,4.752,0,0,0,1.947-3.49,4.158,4.158,0,0,0-1.532-3.482Z" fill="#121728"/>
                  </g>
                  <g id="Groupe_83" data-name="Groupe 83">
                    <path id="Tracé_261" data-name="Tracé 261" d="M1148.286,1196.574c9.041.39,12.341-.008,13.348-.576a8.606,8.606,0,0,1,2.761-.752,1.7,1.7,0,0,1,.965.138,5.334,5.334,0,0,1,2.145,3.583c0,1.535-1.242,1.74-2.823,2.354a36.548,36.548,0,0,1-5.645,1.741c-7.728,1.638-10.073,2.389-12.492,1.379a4.048,4.048,0,0,1-1.791-1.334,4.858,4.858,0,0,1-.577-3.86,4.124,4.124,0,0,1,4.109-2.673Z" fill="#121728"/>
                  </g>
                </g>
                <g id="Groupe_91" data-name="Groupe 91">
                  <g id="Groupe_85" data-name="Groupe 85">
                    <path id="Tracé_262" data-name="Tracé 262" d="M1164.758,1195.609c1.622-.532,2.747-1.147,3.989-1.147a5.842,5.842,0,0,1,4.629,2.048c-2.349.559-3.5,1.638-4.742,2.15-1.355.614-.678.614-1.92.2-1.016-.2-1.241-1.024-2.483-.819a2.308,2.308,0,0,0-.452-2.253l.339-.1Z" fill="#f8b297"/>
                  </g>
                  <g id="Groupe_90" data-name="Groupe 90">
                    <g id="Groupe_86" data-name="Groupe 86">
                      <path id="Tracé_263" data-name="Tracé 263" d="M1155.763,1193.724c.1-.872-1.227-1.256-2.147-.647-1.677,1.109-4.125,5.583-1.189,3.433-.444,1.228.734.955,1.637.648-.352.888.39,1.306,2.037.58,0,.316,0,.316.114.41,1.694.409,5.307-2.764,2.483-2.867.146-.736-.113-1.06-.79-1.228,0-.927-1.437-.819-2.145-.329Z" fill="#f8b297"/>
                    </g>
                    <g id="Groupe_87" data-name="Groupe 87">
                      <path id="Tracé_264" data-name="Tracé 264" d="M1152.366,1196.572q.177-.3.383-.574c.119-.169.26-.358.425-.56.085-.1.161-.208.26-.307s.2-.2.293-.3.218-.189.326-.281.234-.163.345-.242a4.791,4.791,0,0,1,.664-.352,6.091,6.091,0,0,1,.7-.228s-.227.183-.577.413c-.16.134-.369.259-.561.427s-.4.336-.6.522c-.387.375-.774.775-1.1,1.052A5.97,5.97,0,0,1,1152.366,1196.572Z" fill="#ed9f87"/>
                    </g>
                    <g id="Groupe_88" data-name="Groupe 88">
                      <path id="Tracé_265" data-name="Tracé 265" d="M1154.064,1197.158a7.569,7.569,0,0,1,.436-.629c.069-.091.144-.19.228-.292s.165-.212.266-.316c.209-.207.446-.418.681-.63a2.634,2.634,0,0,1,.38-.285c.129-.09.263-.169.389-.25a5.067,5.067,0,0,1,.72-.389c.435-.206.743-.314.743-.314s-.233.214-.61.492c-.093.071-.195.146-.306.222l-.328.255c-.116.086-.231.178-.355.265a2.419,2.419,0,0,0-.354.283c-.23.2-.459.393-.686.568-.212.2-.41.381-.589.532C1154.327,1196.976,1154.064,1197.158,1154.064,1197.158Z" fill="#ed9f87"/>
                    </g>
                    <g id="Groupe_89" data-name="Groupe 89">
                      <path id="Tracé_266" data-name="Tracé 266" d="M1156.1,1197.738a4.045,4.045,0,0,1,.328-.454c.053-.065.11-.135.174-.206s.121-.153.19-.229c.131-.16.276-.318.432-.48s.324-.315.486-.454a2.253,2.253,0,0,1,.248-.187c.08-.059.159-.11.232-.157a4.374,4.374,0,0,1,.507-.29,3.977,3.977,0,0,1-.341.445c-.106.129-.242.265-.381.417s-.287.315-.438.473-.32.32-.48.46a3.549,3.549,0,0,1-.459.359A4.368,4.368,0,0,1,1156.1,1197.738Z" fill="#ed9f87"/>
                    </g>
                  </g>
                </g>
              </g>
              <g id="Groupe_93" data-name="Groupe 93">
                <path id="Tracé_267" data-name="Tracé 267" d="M1173.289,1221.521q-4.8.337-10,.508a72.114,72.114,0,0,1-11.366.106c-1.478-.115-3.422-.323-4.267-1.726a3.732,3.732,0,0,1-.226-2.837c.608-.023,1.578-.056,2.769-.085,4.392-.105,6.023-.006,9.955-.054,2.184-.027,4.235-.052,6.926-.216,3.025-.186,5.54-.467,7.333-.7a3.225,3.225,0,0,1,.612,3.393A3.167,3.167,0,0,1,1173.289,1221.521Z" fill="#121728"/>
                <path id="Tracé_268" data-name="Tracé 268" d="M1165.85,1208.421l-4.63.241-.044,0-4.629.241-2.229,5.857,14.357-.749Z" fill="#121728"/>
              </g>
            </g>
            <g id="Groupe_95" data-name="Groupe 95">
              <path id="Tracé_269" data-name="Tracé 269" d="M1155.366,1181.495c-4.06,1.761-.97,10.455-.97,10.455" fill="none" stroke="#4b494b" stroke-linecap="round" stroke-miterlimit="10" stroke-width="2"/>
              <path id="Tracé_270" data-name="Tracé 270" d="M1164.9,1181.268c4.06,1.939.969,11.512.969,11.512" fill="none" stroke="#4b494b" stroke-linecap="round" stroke-miterlimit="10" stroke-width="2"/>
            </g>
          </g>
          <path id="Tracé_271" data-name="Tracé 271" d="M1160.208,1184.16c.118,0,.3-.014.513-.039a8.892,8.892,0,0,0,3.823-1.7c2.7-1.481,5.447.925,6.6-.491.264-.325.281-.815.313-1.8.064-1.955.13-3.983-1.137-5.085s-3.592-1.022-5.659.193l.237,2.992-.877,1.714a9.008,9.008,0,0,1-.473.916A9.574,9.574,0,0,1,1160.208,1184.16Z" fill="#121728"/>
          <path id="Tracé_272" data-name="Tracé 272" d="M1160.208,1184.16a9.186,9.186,0,0,1-3.2-.624c-1.049-.491-1.571-.741-1.644-.776-.384-.183-.378-.181-.432-.2-3.053-1.125-5.7.449-6.235-.5a.646.646,0,0,1-.04-.1,3.063,3.063,0,0,1,.376-2.3c.724-1.6.41-1.99.838-2.709,1.246-2.092,5.606-1.639,6.236-1.568l.129,2.514.515,1.7a12.449,12.449,0,0,0,3.46,4.572Z" fill="#121728"/>
        </g>
        <g id="Groupe_100" data-name="Groupe 100">
          <path id="Tracé_273" data-name="Tracé 273" d="M1167.666,1155.65c.152-.005.334.516.327.994-.005.392-.14.9-.29.9-.186,0-.421-.777-.26-1.457C1167.47,1155.979,1167.548,1155.653,1167.666,1155.65Z" fill="#c2978d"/>
          <g id="Groupe_98" data-name="Groupe 98">
            <path id="Tracé_274" data-name="Tracé 274" d="M1168.376,1160.269a2.315,2.315,0,0,1,.225.74c.139.992.065,2.054.156,3.06.047.518.011,1.237-.574,1.436a2.116,2.116,0,0,1-.413.039l-.147-2.821a16.787,16.787,0,0,1-.152-1.847c.015-.257.156-.827.468-.888C1168.131,1159.952,1168.273,1160.084,1168.376,1160.269Z" fill="#f8b297"/>
            <path id="Tracé_275" data-name="Tracé 275" d="M1167.782,1162.03c.061-.032.185.061.253.155.107.148.084.3.075.548-.021.524.048.774.009.781a2.309,2.309,0,0,1-.235-.708C1167.768,1162.357,1167.7,1162.076,1167.782,1162.03Z" fill="#ee967d"/>
          </g>
          <path id="Tracé_276" data-name="Tracé 276" d="M1150.594,1162.013a33.515,33.515,0,0,1,.729,3.33c.3,2.076.211,4.37,1.508,6.019a11.974,11.974,0,0,0,3.128,2.334c.832.539,2.17,1.161,3.05,1.618,2.487,1.291,4.251,1.017,5.583-.661,1.893-2.382,3.2-4.218,3.44-6.844a47.011,47.011,0,0,0-.423-7.888c-.075-.937.025-2.03-.143-2.957a6.889,6.889,0,0,0-3.287-4.5c-1.169-.776-4.778-1.117-6.325-.678a25.6,25.6,0,0,1-3.588.862,9.566,9.566,0,0,0-3.035,1.117,2.163,2.163,0,0,0-.684.9,8.791,8.791,0,0,0-.4,5.352C1150.268,1160.687,1150.428,1161.35,1150.594,1162.013Z" fill="#f8b297"/>
          <path id="Tracé_277" data-name="Tracé 277" d="M1152.011,1165.517a18.191,18.191,0,0,0-.881-1.754,3.59,3.59,0,0,0-1.764-1.406c-2.034-.245-.851,3.57-.554,4.432a3.643,3.643,0,0,0,1.461,1.9c.171.109,2.191.813,2.2.62l.109-2.213Q1152.3,1166.307,1152.011,1165.517Z" fill="#f8b297"/>
          <path id="Tracé_278" data-name="Tracé 278" d="M1150.483,1164.207c-.274-.1-.811.413-1.026.95a1.954,1.954,0,0,0,.411,1.983,2.259,2.259,0,0,0,1.037.627c.288.088.553.17.653.063.182-.195-.453-.733-.768-1.7C1150.438,1165.04,1150.782,1164.319,1150.483,1164.207Z" fill="#ee967d"/>
          <path id="Tracé_279" data-name="Tracé 279" d="M1154.054,1160.275a7.054,7.054,0,0,1,4.886-1.167l-.053,1.057a4.658,4.658,0,0,0-4.715.764Z" fill="#262c35"/>
          <path id="Tracé_280" data-name="Tracé 280" d="M1166.616,1159.656a5.863,5.863,0,0,0-3.97-.817l.121.931a4.058,4.058,0,0,1,3.8.549Z" fill="#262c35"/>
          <path id="Tracé_281" data-name="Tracé 281" d="M1161,1167.127a2.368,2.368,0,0,1,.429.244.531.531,0,0,0,.47.071c.163-.072.236-.257.361-.384" fill="none" stroke="#ee967d" stroke-miterlimit="10" stroke-width="1.585"/>
          <g id="Groupe_99" data-name="Groupe 99">
            <path id="Tracé_282" data-name="Tracé 282" d="M1164.986,1168.7s-2.37,1.492-6.979.359c1.071,1.805,2.358,3.375,4.011,3.193C1163.649,1172.077,1164.517,1170.05,1164.986,1168.7Z" fill="#ec887f"/>
            <path id="Tracé_283" data-name="Tracé 283" d="M1164.986,1168.7s-2.675,1.505-6.979.359a5.233,5.233,0,0,0,3.576,1.5A4.338,4.338,0,0,0,1164.986,1168.7Z" fill="#f8f4f5"/>
          </g>
          <path id="Tracé_284" data-name="Tracé 284" d="M1159.549,1148.4a7.946,7.946,0,0,0,1.559-1.494c-.42-.225-.842-.458-1.266-.727a5.673,5.673,0,0,0-2.1-.783,7.755,7.755,0,0,1-1.5,2.578c-.763.675-4.41,2.542-5.393,3.6a6.167,6.167,0,0,0-1.32,2.434,4.854,4.854,0,0,1,2.924-2.413A41.793,41.793,0,0,0,1159.549,1148.4Z" fill="#2f3a41"/>
          <path id="Tracé_285" data-name="Tracé 285" d="M1159.283,1153.353c-1.888.338-2.946.269-4.113,1.136a8.783,8.783,0,0,0-1.109,1.055,9.852,9.852,0,0,0-1.7,2.192c-.275.509-.183.483-.757,1.785-.493,1.116-.739,1.674-.839,1.65-.235-.055-.1-2.282.669-4.5a9.907,9.907,0,0,1,1.055-2.3c2.46-3.5,10.355-2.494,10.4-2.023C1162.9,1152.625,1160.332,1153.165,1159.283,1153.353Z" fill="#e9a28d"/>
          <path id="Tracé_286" data-name="Tracé 286" d="M1148.159,1154.918c.1-1.623,1.325-3.082,2.376-4.155a20.347,20.347,0,0,1,3.288-2.492c1.314-.852,2.6-1.3,3.16-2.544.384-.86,2.384.146,2.859.447,1.147.726,2.27,1.19,3.4,1.937a10.114,10.114,0,0,1,4.039,5.026,11.349,11.349,0,0,1,.718,3.425,12.53,12.53,0,0,1-.362,3.7,8.48,8.48,0,0,1-.077-1.558,6.371,6.371,0,0,0-1.39-4.073,4.1,4.1,0,0,0-2.846-2c-1.351-.422-8.385.382-9.98,1.386-.375.236-.333,2.576-2.1,3.7-.559,1.528.1,3.761.2,4.94a5.516,5.516,0,0,1-.175,1.8,3.1,3.1,0,0,0-1.681-1.935C1148.814,1162.2,1148.027,1157.159,1148.159,1154.918Z" fill="#262c35"/>
          <path id="Tracé_287" data-name="Tracé 287" d="M1157.363,1162.6c.042.59-.124,1.082-.617,1.117s-.741-.4-.783-.992.139-1.11.633-1.145S1157.321,1162.011,1157.363,1162.6Z" fill="#262c35"/>
          <path id="Tracé_288" data-name="Tracé 288" d="M1165.541,1162.16c.042.59-.124,1.083-.616,1.118s-.742-.4-.784-.992.139-1.11.633-1.145S1165.5,1161.57,1165.541,1162.16Z" fill="#262c35"/>
        </g>
      </g>
    </g>
  </g>
</svg>
